<svg width="214" height="103" viewBox="0 0 214 103" fill="none" xmlns="http://www.w3.org/2000/svg">
<path d="M58.8253 57.7819V60.6722H52.6635V60.0482H55.4099V35.3255H52.6693V34.6522C52.8106 34.6522 52.9508 34.6538 53.091 34.6522C54.267 34.6361 55.4442 34.642 56.6192 34.5949C57.4293 34.5622 58.173 34.3035 58.8114 33.6516V47.325C58.8349 47.3288 58.8579 47.333 58.8814 47.3368C58.9992 47.0947 59.1062 46.8467 59.2367 46.6121C60.1265 45.0067 61.3786 43.8181 63.2032 43.3977C64.9416 42.997 66.5891 43.3473 68.091 44.2874C70.2703 45.6517 71.6213 47.6582 72.2035 50.1227C72.9788 53.404 72.2035 56.349 69.8872 58.8205C68.6191 60.1735 67.0086 60.9036 65.1615 61.1221C63.5643 61.3112 62.0999 61.0129 60.7884 60.0503C60.0741 59.5259 59.6204 58.9967 58.8253 57.7824V57.7819ZM58.852 52.5042L58.7819 52.5058C58.8226 53.6365 58.8065 54.7737 58.92 55.8969C59.043 57.1118 59.6 58.1622 60.4941 59.0015C61.7708 60.2008 63.2893 60.6722 65.0326 60.481C66.7367 60.2946 67.7122 59.4847 68.1627 57.8178C68.4436 56.7786 68.5495 55.7127 68.5608 54.6441C68.579 52.8786 68.5699 51.112 68.5217 49.3471C68.4955 48.3867 68.351 47.4311 68.0562 46.5082C67.7544 45.5633 67.2846 44.7384 66.3515 44.2847C65.4328 43.838 64.4558 43.8053 63.4793 44.0024C60.82 44.5391 59.0644 47.1525 58.8654 49.5613C58.7851 50.5357 58.852 51.5223 58.852 52.5036V52.5042Z" fill="#11190C"/>
<path d="M93.6104 44.8706H90.4888V44.2161C90.6006 44.2161 90.7044 44.2161 90.8083 44.2161C92.1272 44.2086 93.4467 44.2 94.7656 44.1936C95.5939 44.1893 96.3847 44.0838 97.0123 43.3199V47.3882L97.0755 47.4042C97.1386 47.303 97.2039 47.2034 97.2649 47.1005C97.984 45.8953 98.8909 44.8712 100.106 44.1432C101.256 43.4539 102.506 43.2396 103.827 43.3483C104.664 43.4174 105.485 43.5524 106.256 43.9086C107.614 44.5359 108.334 45.6179 108.508 47.0823C108.547 47.4176 108.557 47.7583 108.557 48.0963C108.561 51.961 108.56 55.8262 108.56 59.6909V60.0262H111.701V60.663H102.046V60.0396H105.171C105.176 59.9206 105.184 59.8264 105.184 59.7321C105.185 55.403 105.189 51.0739 105.177 46.7449C105.176 46.3576 105.114 45.9591 105.008 45.5863C104.676 44.4186 103.731 43.8604 102.455 43.9863C100.969 44.1325 99.8091 44.8572 98.8342 45.9387C98.1124 46.7395 97.5651 47.656 97.0739 48.6084C97.0316 48.6909 97.0113 48.7942 97.0107 48.888C97.0075 52.5298 97.0081 56.1717 97.0086 59.813C97.0086 59.874 97.0166 59.9351 97.0225 60.0213H100.036V60.663H90.4883V60.0438H93.6099V44.8706H93.6104Z" fill="#11190C"/>
<path d="M132.812 44.8691H129.119V44.2167C129.236 44.2167 129.34 44.2167 129.443 44.2167C130.558 44.2167 131.673 44.2114 132.788 44.2215C132.983 44.2231 133.063 44.1546 133.128 43.9773C134.087 41.366 135.436 38.9856 137.332 36.9352C138.33 35.8548 139.442 34.9131 140.748 34.2205C141.652 33.74 142.612 33.4942 143.646 33.5242C144.847 33.559 145.955 34.386 146.145 35.475C146.277 36.2303 146.109 36.9373 145.461 37.4124C144.842 37.8661 144.13 37.9331 143.438 37.594C142.737 37.2507 142.413 36.6266 142.389 35.8574C142.376 35.4632 142.507 35.1038 142.774 34.8028C142.839 34.7294 142.905 34.656 142.962 34.5767C143.131 34.341 143.072 34.1755 142.794 34.1064C142.369 34.0004 141.981 34.1209 141.615 34.3218C140.968 34.6774 140.486 35.2163 140.058 35.8023C138.793 37.5388 137.918 39.472 137.242 41.5015C136.948 42.3864 136.669 43.2772 136.37 44.2076H139.756V44.8745C139.643 44.8745 139.548 44.8745 139.453 44.8745C138.445 44.8745 137.437 44.8825 136.43 44.8686C136.209 44.8654 136.127 44.9398 136.059 45.1407C134.46 49.8662 132.867 54.5938 131.241 59.3096C130.408 61.7232 129.227 63.9643 127.691 66.0094C127.11 66.7824 126.475 67.5033 125.668 68.0524C124.625 68.7626 123.466 68.986 122.232 68.8189C121.284 68.6903 120.494 67.867 120.351 66.9157C120.215 66.0051 120.935 65.0447 121.852 64.9751C122.197 64.9488 122.576 64.9853 122.896 65.1053C123.958 65.5032 124.162 66.8091 123.303 67.5505C123.15 67.6822 122.989 67.822 123.069 68.0454C123.151 68.2773 123.371 68.2923 123.582 68.2988C124.276 68.3197 124.809 67.9736 125.286 67.5269C126.031 66.829 126.54 65.9618 126.854 65.0083C127.528 62.9568 128.177 60.8956 128.776 58.8211C129.907 54.9087 130.991 50.9824 132.104 47.0653C132.31 46.3406 132.564 45.6303 132.811 44.8702L132.812 44.8691Z" fill="#11190C"/>
<path d="M78.7555 50.688C78.7555 51.3243 78.7496 51.9215 78.7565 52.5188C78.7705 53.7229 78.7587 54.9281 78.8186 56.1301C78.8716 57.1971 79.1011 58.232 79.7432 59.126C80.3195 59.9294 81.1328 60.3472 82.0884 60.4581C84.0018 60.6799 85.7295 60.2192 87.1929 58.9267C88.3016 57.9475 88.9351 56.6936 89.2444 55.2613C89.2647 55.1665 89.2877 55.0722 89.3112 54.972C89.3829 54.9672 89.4445 54.9608 89.506 54.9603C89.6387 54.9587 89.7719 54.9597 89.941 54.9597C89.9207 55.0899 89.91 55.1992 89.8864 55.3057C89.4059 57.4923 88.3021 59.2427 86.3026 60.3371C84.9558 61.0741 83.5004 61.276 81.9835 61.1175C80.2323 60.9348 78.7068 60.2637 77.4462 59.0231C76.1149 57.7135 75.3947 56.091 75.0699 54.2768C74.5397 51.3168 75.2529 48.6552 77.0524 46.2764C77.9502 45.0894 79.0615 44.1493 80.4891 43.6592C82.3335 43.0261 84.1083 43.2543 85.7263 44.3122C87.7285 45.6213 88.9768 47.4966 89.5333 49.8224C89.7152 50.5835 89.6125 50.6874 88.8463 50.6874C85.6097 50.6874 82.3736 50.6874 79.137 50.6874H78.756L78.7555 50.688ZM78.7619 50.0307C81.0054 50.0307 83.2152 50.0307 85.4245 50.0307C85.4336 50.0307 85.4422 50.0302 85.4513 50.0296C85.6214 50.0238 85.7177 49.9402 85.7193 49.765C85.7284 48.713 85.7536 47.6594 85.4914 46.6283C85.1104 45.1301 84.2961 44.1413 82.792 43.9994C81.3045 43.859 79.9604 44.4161 79.2863 45.9571C78.7191 47.2539 78.7405 48.6252 78.7619 50.0302V50.0307Z" fill="#11190C"/>
<path d="M126.701 54.9739C126.587 55.4078 126.506 55.809 126.376 56.193C125.516 58.7288 123.854 60.446 121.193 60.9929C117.387 61.7755 113.602 59.9479 112.239 55.9086C110.862 51.8254 111.761 48.2092 114.799 45.1673C116.027 43.9375 117.551 43.2808 119.325 43.3306C120.736 43.3697 121.988 43.8619 123.077 44.7484C124.667 46.0426 125.722 47.6902 126.232 49.6801C126.285 49.8853 126.307 50.1017 126.319 50.3138C126.33 50.5313 126.223 50.6705 125.988 50.6775C125.872 50.6812 125.756 50.6871 125.641 50.6871C122.368 50.6871 119.096 50.6903 115.823 50.6818C115.564 50.6812 115.473 50.731 115.477 51.0149C115.493 52.3626 115.473 53.7108 115.488 55.0585C115.497 55.968 115.563 56.8733 115.824 57.755C116.343 59.5129 117.482 60.4412 119.318 60.5087C121.316 60.5826 123.052 59.9468 124.413 58.4374C125.218 57.545 125.718 56.4887 125.95 55.3124C126.006 55.0333 126.102 54.901 126.394 54.9578C126.471 54.9728 126.551 54.9669 126.702 54.9734L126.701 54.9739ZM115.484 50.0031C115.542 50.0176 115.568 50.0288 115.594 50.0288C117.777 50.0304 119.961 50.0299 122.145 50.0326C122.377 50.0326 122.463 49.9078 122.466 49.6994C122.476 48.7181 122.469 47.7363 122.251 46.7737C122.061 45.936 121.753 45.1496 121.053 44.5952C119.465 43.3408 116.92 43.9953 116.052 45.8711C115.621 46.8048 115.511 47.8005 115.486 48.8113C115.476 49.2104 115.484 49.6099 115.484 50.0031H115.484Z" fill="#11190C"/>
<path d="M151.932 44.8734H148.453V44.2334C148.747 44.22 149.037 44.2066 149.328 44.1937C150.307 44.1503 151.254 43.9746 152.123 43.4942C153.213 42.8916 153.852 41.9226 154.247 40.7817C154.45 40.1951 154.589 39.5856 154.733 38.9803C154.832 38.5609 154.819 38.5528 155.304 38.6214V44.2034H160.817V44.8681H155.316V45.183C155.316 49.6187 155.316 54.0549 155.318 58.4906C155.318 58.677 155.325 58.8666 155.359 59.0493C155.541 60.0381 156.079 60.4875 157.086 60.5175C158.399 60.5566 159.317 59.9154 159.978 58.8366C160.098 58.64 160.209 58.4333 160.29 58.2185C160.361 58.031 160.448 57.9598 160.644 58.0316C160.75 58.0701 160.866 58.0841 161 58.114C160.706 59.0155 160.195 59.7328 159.456 60.2882C158.745 60.8228 157.93 61.0922 157.053 61.1501C156.144 61.2101 155.238 61.1512 154.353 60.9005C152.762 60.4489 151.933 59.3626 151.933 57.7086C151.93 53.5584 151.932 49.4077 151.932 45.2575C151.932 45.1429 151.932 45.0282 151.932 44.8734Z" fill="#11190C"/>
<path d="M146.192 60.0385H149.388V60.6679H139.618V60.0439H142.797V44.8889H141.49V44.2172C141.597 44.2172 141.709 44.2215 141.82 44.2166C142.743 44.1738 143.668 44.1513 144.589 44.0768C145.174 44.0297 145.695 43.7721 146.192 43.3452V60.0385Z" fill="#11190C"/>
<path d="M88.7814 64.8694C88.8943 64.946 89.0297 65.0028 89.1169 65.1019C89.9682 66.0735 90.811 67.0521 91.7002 68.079V64.9304C91.8185 64.9246 91.9025 64.9203 92.0031 64.9149V68.6275C91.8543 68.5493 91.7179 68.5177 91.6424 68.432C90.8008 67.4758 89.9682 66.5111 89.1341 65.548C89.111 65.5213 89.0998 65.4843 89.0832 65.4522C89.0607 65.4623 89.0388 65.472 89.0163 65.4822V68.5568C88.9013 68.5627 88.8205 68.5669 88.7247 68.5723V64.9444C88.744 64.9192 88.7627 64.8946 88.782 64.8694H88.7814Z" fill="#11190C"/>
<path d="M114.323 68.6318C113.223 68.6318 112.383 67.8117 112.39 66.7463C112.398 65.6932 113.239 64.8715 114.312 64.8694C115.399 64.8672 116.26 65.6964 116.263 66.7479C116.265 67.8058 115.414 68.6323 114.323 68.6318H114.323ZM114.335 68.3511C115.249 68.35 115.945 67.6574 115.944 66.7516C115.943 65.8507 115.24 65.1517 114.33 65.1474C113.432 65.1431 112.71 65.8507 112.701 66.7436C112.693 67.6521 113.404 68.3522 114.335 68.3511Z" fill="#11190C"/>
<path d="M65.3834 64.8763C65.4829 64.9443 65.6012 64.9952 65.6782 65.083C66.4541 65.9674 67.2229 66.8576 67.994 67.7457C68.0748 67.8389 68.1566 67.931 68.2877 68.0805V64.9336C68.4022 64.9255 68.4782 64.9202 68.5756 64.9132V68.6397C68.4252 68.5502 68.2925 68.5079 68.2133 68.4179C67.4118 67.5089 66.6189 66.5925 65.8237 65.6776C65.7654 65.6106 65.7071 65.5437 65.6033 65.4242V68.561H65.3224V64.947L65.3834 64.8752V64.8763Z" fill="#11190C"/>
<path d="M78.5663 64.8976C79.019 64.919 79.4476 64.9131 79.8681 64.9667C80.347 65.0272 80.6274 65.3009 80.6868 65.6823C80.7617 66.1654 80.6146 66.4472 80.1539 66.7038C80.1239 66.7204 80.0961 66.7418 80.0988 66.7397C80.499 67.3348 80.8981 67.9282 81.3048 68.533C81.0747 68.6257 80.9533 68.5646 80.8505 68.3894C80.6707 68.0825 80.4476 67.7997 80.285 67.4847C79.9778 66.8912 79.499 66.7364 78.8569 66.8762V68.5576H78.5658V64.897L78.5663 64.8976ZM78.8686 66.6127C79.2384 66.5811 79.5797 66.5827 79.9061 66.5147C80.2331 66.4467 80.3989 66.1826 80.3925 65.8671C80.3866 65.565 80.2208 65.3106 79.9045 65.2468C79.5717 65.1793 79.225 65.1804 78.8686 65.1499V66.6127Z" fill="#11190C"/>
<path d="M63.086 68.5425C62.8747 68.6164 62.773 68.5613 62.7013 68.3861C62.5772 68.0819 62.4402 67.7819 62.2861 67.4916C62.2444 67.4134 62.1234 67.3336 62.0362 67.3304C61.5739 67.3143 61.11 67.3304 60.6472 67.3186C60.484 67.3143 60.4102 67.3786 60.3513 67.5194C60.2282 67.8146 60.0838 68.1006 59.9602 68.3952C59.8869 68.5704 59.7809 68.6218 59.5851 68.5329C59.8933 67.859 60.1993 67.1906 60.5054 66.5221C60.7312 66.0293 60.9554 65.5359 61.1855 65.0448C61.2122 64.9874 61.2684 64.9135 61.3192 64.9066C61.3636 64.9001 61.4434 64.966 61.468 65.0185C62.0084 66.1868 62.5429 67.3571 63.0855 68.542L63.086 68.5425ZM61.331 65.3769C61.0645 65.9661 60.8238 66.4985 60.5733 67.0518H62.0929C61.8404 66.4964 61.6001 65.9682 61.331 65.3769Z" fill="#11190C"/>
<path d="M86.4832 68.5503C86.2901 68.6269 86.1884 68.5551 86.114 68.3719C85.9936 68.0757 85.8406 67.7929 85.7202 67.4967C85.663 67.3564 85.5849 67.3178 85.4409 67.3205C84.9866 67.329 84.5318 67.3296 84.0776 67.3205C83.9251 67.3172 83.8389 67.3574 83.7785 67.5074C83.6592 67.8041 83.5093 68.0886 83.3852 68.3832C83.3146 68.5514 83.2183 68.6264 83.0187 68.5466C83.0438 68.4737 83.0636 68.3993 83.0947 68.3302C83.5901 67.2465 84.0861 66.1635 84.587 65.082C84.6201 65.0108 84.6875 64.9481 84.7544 64.9058C84.7699 64.8961 84.8689 64.9749 84.8941 65.0295C85.4222 66.1763 85.9455 67.3253 86.4688 68.4737C86.4789 68.4962 86.4784 68.5235 86.4832 68.5503ZM83.9909 67.0484H85.5126C85.259 66.4956 85.0177 65.9696 84.7496 65.3846C84.4831 65.9685 84.2434 66.4945 83.9909 67.0484Z" fill="#11190C"/>
<path d="M110.271 68.067C110.216 68.1629 110.184 68.307 110.101 68.3466C109.404 68.6836 108.688 68.7618 107.973 68.4029C107.252 68.0413 106.883 67.2625 107.013 66.4264C107.129 65.6856 107.77 65.0492 108.518 64.911C109.057 64.8119 109.564 64.9132 110.051 65.1269C110.144 65.1676 110.189 65.3197 110.284 65.4627C109.834 65.3449 109.475 65.2126 109.103 65.1612C108.251 65.0428 107.471 65.617 107.333 66.4269C107.175 67.3445 107.655 68.1158 108.527 68.3129C108.991 68.4179 109.447 68.3445 109.882 68.1495C109.986 68.1029 110.09 68.0585 110.194 68.0135C110.219 68.0311 110.245 68.0488 110.27 68.0665L110.271 68.067Z" fill="#11190C"/>
<path d="M97.6937 68.0832C97.7397 68.2102 97.6862 68.3178 97.4968 68.3939C96.8077 68.6708 96.1185 68.7544 95.4331 68.4062C94.7418 68.0554 94.3464 67.2771 94.4625 66.5395C94.5962 65.6873 95.18 65.0649 95.9714 64.9133C96.5091 64.8104 97.0179 64.9117 97.5054 65.1254C97.5931 65.164 97.6279 65.3236 97.6996 65.4479C97.2785 65.3397 96.9329 65.2159 96.5765 65.1661C95.6204 65.0333 94.8285 65.6942 94.761 66.6504C94.6936 67.6108 95.3897 68.3735 96.3673 68.3382C96.8082 68.3221 97.2443 68.1732 97.6943 68.0822L97.6937 68.0832Z" fill="#11190C"/>
<path d="M102.759 67.9971C102.914 68.0833 103.062 68.1781 103.22 68.2526C103.508 68.3881 103.802 68.4117 104.087 68.2435C104.554 67.9676 104.567 67.335 104.102 67.0603C103.875 66.9263 103.619 66.8401 103.376 66.7324C102.807 66.4801 102.591 66.0902 102.738 65.5771C102.872 65.1062 103.414 64.795 103.951 64.8882C104.09 64.9123 104.226 64.9557 104.363 64.9916C104.572 65.0457 104.659 65.1684 104.58 65.3821C104.374 65.3098 104.17 65.1935 103.959 65.1764C103.75 65.1598 103.506 65.193 103.327 65.2937C102.9 65.5331 102.912 66.1186 103.335 66.365C103.548 66.4893 103.787 66.568 104.015 66.6655C104.64 66.9328 104.878 67.3581 104.711 67.913C104.552 68.439 104.016 68.7266 103.406 68.6013C103.26 68.5713 103.122 68.5027 102.981 68.4497C102.777 68.3731 102.681 68.2376 102.761 67.996L102.759 67.9971Z" fill="#11190C"/>
<path d="M55.579 68.0762C55.9075 68.1721 56.2098 68.3039 56.5239 68.3403C56.8664 68.3805 57.1505 68.1303 57.2339 67.8116C57.3163 67.4988 57.1885 67.1983 56.8706 67.0285C56.6523 66.9117 56.4153 66.8292 56.1868 66.7312C55.6309 66.4929 55.4121 66.1056 55.5464 65.5994C55.6646 65.1527 56.1617 64.8233 56.6657 64.8747C56.8407 64.8924 57.0108 64.9534 57.1831 64.9947C57.3848 65.0434 57.4608 65.1645 57.388 65.3916C57.2548 65.3348 57.1237 65.2732 56.9889 65.2234C56.6903 65.1136 56.3955 65.1082 56.1215 65.2946C55.7256 65.564 55.7277 66.1158 56.1387 66.36C56.3506 66.4859 56.5892 66.5673 56.8187 66.6616C57.4512 66.9214 57.7 67.3708 57.5181 67.9321C57.3447 68.4656 56.7813 68.7474 56.1745 68.5947C56.0381 68.5604 55.9086 68.4962 55.777 68.4431C55.5913 68.3682 55.5153 68.2407 55.5785 68.0757L55.579 68.0762Z" fill="#11190C"/>
<path d="M76.2967 64.9371C76.3523 65.1551 76.2474 65.1776 76.0992 65.176C75.6562 65.1712 75.2126 65.1744 74.753 65.1744V66.5542C75.1661 66.5542 75.5733 66.5563 75.9804 66.5531C76.134 66.552 76.225 66.5885 76.1484 66.7867H74.7439V68.557C74.6358 68.5645 74.5534 68.5704 74.4507 68.5773V64.9371H76.2967Z" fill="#11190C"/>
<path d="M100.269 68.5614C100.181 68.5651 100.106 68.5683 100.012 68.5726V64.9297C100.083 64.9254 100.165 64.92 100.269 64.9131V68.5608V68.5614Z" fill="#11190C"/>
</svg>
