<svg width="214" height="103" viewBox="0 0 214 103" fill="none" xmlns="http://www.w3.org/2000/svg">
<path d="M63.9006 46.1491C63.9006 47.5906 63.1115 48.6556 61.5362 49.3499C60.7723 49.69 59.6794 49.9019 58.2574 49.9856C57.8671 49.9995 56.7156 50.0079 54.8001 50.0079H51.6942C51.407 50.0079 51.262 49.9493 51.262 49.8266C51.262 49.704 51.5241 49.6454 52.051 49.6454C52.6616 49.6454 53.0213 49.5924 53.1328 49.4865C53.2416 49.3805 53.2973 49.0599 53.2973 48.5218V37.057C53.2973 36.4353 53.2639 36.0756 53.197 35.9752C53.0771 35.8051 52.6449 35.7131 51.9005 35.6992C51.4432 35.6992 51.2146 35.6239 51.2146 35.4761C51.2146 35.3423 51.4265 35.2754 51.8503 35.2754H52.1542C52.341 35.3172 52.5111 35.3395 52.6616 35.3395H57.6189C59.4507 35.3535 60.8141 35.6072 61.7119 36.1035C62.763 36.6834 63.2872 37.5226 63.2872 38.6239C63.2872 39.5858 62.855 40.3721 61.9907 40.9855C61.1264 41.5989 59.9136 41.9836 58.355 42.1398V42.268C59.8968 42.3517 61.1013 42.6221 61.9656 43.0738C63.2537 43.7513 63.8978 44.7773 63.8978 46.1463L63.9006 46.1491ZM60.4935 38.8386C60.4935 37.4836 60.1199 36.5774 59.3755 36.1258C58.9851 35.886 58.249 35.7661 57.1645 35.7661C56.8773 35.7661 56.4284 35.7884 55.8178 35.8302V41.9725H56.0464L57.4461 41.9307C58.4135 41.9028 59.1636 41.6156 59.6961 41.0719C60.2314 40.5282 60.4963 39.7838 60.4963 38.8358L60.4935 38.8386ZM61.2323 45.9149C61.2323 44.1361 60.368 43.032 58.6394 42.6082C58.1319 42.4799 57.1896 42.4186 55.8178 42.4186V48.7337C55.8178 49.1435 55.868 49.3777 55.9711 49.4335C56.1412 49.5311 56.6152 49.5813 57.3959 49.5813C58.5669 49.5813 59.4981 49.2718 60.1924 48.65C60.8866 48.0283 61.2351 47.1166 61.2351 45.9177L61.2323 45.9149Z" fill="#11190C"/>
<path d="M80.9892 49.8663C80.9892 49.9862 80.861 50.0475 80.6072 50.0475C80.4372 50.0475 80.2838 50.0392 80.15 50.0252L76.9213 49.9416L73.6927 50.0252C73.5728 50.0392 73.4473 50.0475 73.3107 50.0475C72.9706 50.0475 72.8033 49.975 72.8033 49.8273C72.8033 49.6656 73.0319 49.5819 73.4891 49.5819C74.9808 49.568 75.728 49.4425 75.728 49.2083C75.728 49.1944 75.7113 49.1386 75.675 49.0438L75.4659 48.4834L75.3349 48.1878C75.1815 47.7501 74.8107 46.7798 74.2168 45.2826H68.78C67.7623 47.5438 67.2549 48.8431 67.2549 49.1804C67.2549 49.3784 67.3553 49.4983 67.5588 49.5401C67.609 49.554 68.0328 49.5819 68.8302 49.6237C69.3209 49.6377 69.569 49.7074 69.569 49.8356C69.569 49.9778 69.3488 50.0475 68.9082 50.0475C68.1276 50.0475 67.2214 50.0196 66.187 49.9639C65.9333 49.9499 65.6684 49.9416 65.398 49.9416C65.1275 49.9416 64.8627 49.9639 64.609 50.0113C64.4723 50.0336 64.3636 50.0475 64.2772 50.0475C64.0402 50.0475 63.9203 49.9834 63.9203 49.8552C63.9203 49.7269 64.1879 49.6572 64.7205 49.6433C65.2558 49.6293 65.6406 49.5624 65.8776 49.4425C66.1145 49.3226 66.3013 49.0912 66.438 48.7511C68.6183 43.5345 70.3943 39.3467 71.7633 36.185C71.8023 36.0177 71.8804 35.8309 72.0003 35.6218L72.109 35.2342C72.1592 35.0781 72.2261 35 72.3126 35C72.3627 35 72.4046 35.0418 72.4408 35.1283C72.6611 35.6803 73.1601 36.8318 73.9408 38.5827C74.5514 39.9545 76.0682 43.3923 78.491 48.9016C78.6277 49.2222 78.8005 49.4258 79.0124 49.5122C79.2243 49.5986 79.6621 49.6516 80.3228 49.6656C80.7634 49.6795 80.9836 49.7464 80.9836 49.8663H80.9892ZM74.0997 44.7919C73.8237 44.1562 73.3665 43.1023 72.728 41.633L71.5068 38.6943C70.793 40.2584 69.9315 42.2882 68.9278 44.7891H74.0997V44.7919Z" fill="#11190C"/>
<path d="M98.0023 42.6528C98.0023 45.1454 96.9595 47.0887 94.874 48.4744C93.3489 49.4948 91.3052 50.0051 88.7457 50.0051H81.8534C81.53 50.0051 81.3711 49.9354 81.3711 49.7932C81.3711 49.6649 81.6415 49.6036 82.1852 49.6036C82.8795 49.6036 83.3116 49.4976 83.4817 49.2857C83.5486 49.1882 83.5821 48.9177 83.5821 48.48V37.057C83.5821 36.3655 83.518 35.9613 83.3925 35.8497C83.2642 35.7382 82.8293 35.6797 82.0821 35.6797C81.6917 35.6797 81.4966 35.6016 81.4966 35.4455C81.4966 35.3312 81.6415 35.2754 81.9287 35.2754C81.912 35.2754 82.0988 35.2754 82.4891 35.2754H86.3535C89.4037 35.2754 91.5673 35.4538 92.8387 35.8079C94.3805 36.2317 95.6268 37.0737 96.5775 38.3256C97.5255 39.5803 98.0023 41.0217 98.0023 42.65V42.6528ZM95.1556 42.5663C95.1556 40.2132 94.6036 38.4901 93.5022 37.3916C92.4009 36.2931 90.6807 35.7438 88.3414 35.7438C87.2066 35.7438 86.518 35.8442 86.281 36.0421C86.1806 36.1425 86.1276 36.4827 86.1276 37.0626V48.3684C86.1276 48.7644 86.1416 49.0069 86.1667 49.0906C86.1918 49.177 86.2643 49.2467 86.3841 49.3025C86.7912 49.4725 87.6472 49.5562 88.952 49.5562C90.7838 49.5562 92.2587 49.0181 93.3768 47.9419C94.5645 46.8071 95.1556 45.0143 95.1556 42.5636V42.5663Z" fill="#11190C"/>
<path d="M116.792 45.5534C116.792 45.6677 116.717 45.7235 116.563 45.7235H115.978C115.197 45.6956 114.757 45.8071 114.656 46.0608C114.589 46.2309 114.556 46.8415 114.556 47.8954V48.5701C113.692 49.1891 112.855 49.6241 112.052 49.8778C111.246 50.1315 110.284 50.257 109.166 50.257C106.487 50.257 104.36 49.5906 102.784 48.2551C101.209 46.9196 100.42 45.1073 100.42 42.821C100.42 40.5348 101.192 38.6333 102.734 37.2057C104.276 35.7782 106.311 35.0645 108.837 35.0645C109.939 35.0645 111.143 35.3182 112.448 35.8284C112.838 35.9845 113.159 36.0626 113.416 36.0626C113.736 36.0626 113.951 35.8925 114.051 35.5552C114.135 35.3572 114.238 35.2596 114.355 35.2596C114.492 35.2596 114.559 35.3154 114.559 35.4297C114.559 35.4715 114.545 35.6193 114.514 35.8758C114.425 36.6816 114.38 37.2615 114.38 37.6128V38.9901C114.397 39.4836 114.405 39.7039 114.405 39.6481C114.372 39.9883 114.26 40.1556 114.074 40.1556C113.92 40.1556 113.837 40.0552 113.82 39.8572C113.736 38.4799 113.259 37.3981 112.395 36.6119C111.531 35.8256 110.396 35.4297 108.988 35.4297C107.226 35.4297 105.832 36.0877 104.806 37.4065C103.78 38.7253 103.267 40.5152 103.267 42.782C103.267 45.0487 103.788 46.6965 104.831 47.9791C105.874 49.2616 107.284 49.9029 109.066 49.9029C110.421 49.9029 111.355 49.5794 111.863 48.9326C112.116 48.6092 112.244 48.0265 112.244 47.1817C112.244 46.479 112.164 46.0636 112.002 45.9382C111.84 45.8127 111.285 45.7541 110.337 45.7681C110.1 45.7681 109.947 45.7569 109.88 45.7374C109.813 45.7151 109.78 45.6705 109.78 45.6008C109.78 45.4474 109.967 45.3694 110.34 45.3694H110.797C111.051 45.3833 111.949 45.3833 113.494 45.3694H116.29C116.63 45.3694 116.798 45.4335 116.798 45.559L116.792 45.5534Z" fill="#11190C"/>
<path d="M129.837 48.3294C129.837 48.6974 129.812 49.3053 129.762 50.1528H129.483C129.383 50.1528 129.135 50.1389 128.747 50.111C128.357 50.0831 127.919 50.0692 127.428 50.0692L116.87 50.0051C116.582 50.0051 116.437 49.9409 116.437 49.8155C116.437 49.7179 116.666 49.6538 117.123 49.6259C117.767 49.598 118.152 49.5367 118.28 49.4447C118.409 49.3527 118.47 49.0878 118.47 48.65V36.7392C118.47 36.2178 118.406 35.9139 118.28 35.8274C118.152 35.7438 117.7 35.6992 116.92 35.6992C116.596 35.6992 116.437 35.6211 116.437 35.465C116.437 35.3367 116.538 35.2754 116.741 35.2754H116.97C117.53 35.3172 118.64 35.3395 120.302 35.3395C120.455 35.3395 120.751 35.3284 121.191 35.3088C121.632 35.2865 121.997 35.2782 122.284 35.2782H122.563C122.867 35.2782 123.02 35.3479 123.02 35.4901C123.02 35.5737 122.973 35.6267 122.881 35.649C122.789 35.6713 122.496 35.688 122.002 35.702C121.512 35.7159 121.219 35.7828 121.124 35.9027C121.032 36.0226 120.985 36.3934 120.985 37.0152V49.5172C121.442 49.5311 122.078 49.5395 122.892 49.5395C124.874 49.5395 126.274 49.4558 127.088 49.2857C127.902 49.1157 128.451 48.7978 128.741 48.3322C129.029 47.8666 129.199 47.2365 129.249 46.4474C129.266 46.2634 129.363 46.1714 129.542 46.1714C129.753 46.1714 129.851 46.2773 129.834 46.4892V48.3322L129.837 48.3294Z" fill="#11190C"/>
<path d="M144.408 46.594C144.408 46.6498 144.391 46.9955 144.357 47.6312C144.324 48.2669 144.307 48.8747 144.307 49.4546V50.1545C142.646 50.0708 139.358 50.0262 134.44 50.0262H131.262C130.938 50.0262 130.779 49.9704 130.779 49.8561C130.779 49.7808 130.829 49.7362 130.933 49.7223C130.983 49.7223 131.306 49.7028 131.9 49.6665C132.341 49.6387 132.608 49.5606 132.7 49.4323C132.792 49.3041 132.84 48.9723 132.84 48.4342V36.4898C132.84 36.08 132.767 35.8346 132.625 35.7566C132.48 35.6785 132.02 35.6395 131.239 35.6395C130.969 35.6395 130.832 35.5809 130.832 35.4582C130.832 35.3356 131.019 35.277 131.393 35.277H142.174C142.682 35.277 143.15 35.2491 143.574 35.1934C143.607 35.8012 143.686 36.6404 143.803 37.7138L143.903 38.6255C143.92 38.6952 143.928 38.7873 143.928 38.9016C143.928 39.0438 143.853 39.1135 143.699 39.1135C143.513 39.1135 143.376 38.935 143.292 38.5809C142.969 37.3012 142.445 36.4898 141.717 36.1497C141.173 35.8932 139.751 35.7649 137.446 35.7649H135.36V41.9964H135.971C137.87 41.9964 139.027 41.8765 139.442 41.6367C139.857 41.3969 140.142 40.6971 140.295 39.5401C140.329 39.2445 140.423 39.094 140.574 39.094C140.761 39.094 140.853 39.2222 140.853 39.4759C140.853 39.7296 140.836 40.1033 140.803 40.5995C140.769 41.093 140.752 41.4694 140.752 41.7232C140.752 43.2343 140.78 44.2743 140.833 44.8375C140.847 44.9797 140.853 45.0996 140.853 45.1972C140.853 45.3812 140.761 45.4732 140.574 45.4732C140.457 45.4732 140.376 45.4146 140.334 45.292C140.292 45.1721 140.22 44.7789 140.12 44.1154C139.986 43.2817 139.57 42.7659 138.879 42.568C138.575 42.4843 137.783 42.4397 136.501 42.4397H135.36V49.5383C139.091 49.5383 141.277 49.4769 141.921 49.3487C143.039 49.1396 143.674 48.2474 143.828 46.6693C143.861 46.3208 143.973 46.1451 144.16 46.1451C144.33 46.1451 144.413 46.2929 144.413 46.5912L144.408 46.594Z" fill="#11190C"/>
<path d="M160.679 35.4349C160.679 35.5409 160.534 35.5938 160.247 35.5938C159.315 35.6078 158.738 35.7444 158.518 36.0009C158.314 36.157 157.587 37.3727 156.332 39.6422C155.772 40.6459 155.248 41.527 154.757 42.2909C154.417 42.8151 154.221 43.172 154.171 43.3644C154.121 43.5567 154.096 43.9694 154.096 44.6079V48.6256C154.096 49.094 154.169 49.37 154.313 49.4536C154.458 49.5373 154.963 49.6014 155.827 49.646C156.285 49.6739 156.513 49.738 156.513 49.8468C156.513 49.9555 156.393 50.0085 156.156 50.0085H155.853L152.292 49.9443C151.291 49.9443 150.469 49.9583 149.825 49.9862C149.724 50.0001 149.604 50.0085 149.468 50.0085C149.231 50.0085 149.111 49.9415 149.111 49.8077C149.111 49.6739 149.306 49.5986 149.696 49.5847C150.628 49.5568 151.18 49.4871 151.35 49.3728C151.52 49.2612 151.603 48.9239 151.603 48.3607V43.9052C151.433 43.5958 150.943 42.7677 150.129 41.4266L147.586 37.2305C147.332 36.8206 147.025 36.3606 146.671 35.8531C146.484 35.7109 146.083 35.6412 145.464 35.6412C144.845 35.6412 144.536 35.5632 144.536 35.407C144.536 35.2927 144.672 35.237 144.943 35.237C145.299 35.237 146.01 35.2509 147.078 35.2788C147.689 35.2927 148.129 35.3011 148.4 35.3011L151.35 35.2704C151.467 35.2481 151.603 35.2397 151.757 35.2397C152.061 35.2397 152.214 35.3122 152.214 35.4544C152.214 35.5827 151.927 35.6468 151.35 35.6468C150.299 35.6468 149.774 35.8029 149.774 36.1152C149.774 36.3578 150.307 37.3308 151.375 39.0344L153.683 42.6785C154.104 42.0484 154.587 41.2677 155.128 40.342L156.628 37.8216C157.196 36.9126 157.478 36.316 157.478 36.0316C157.478 35.8476 157.333 35.7416 157.046 35.7109C156.452 35.6412 156.053 35.6106 155.85 35.6245C155.476 35.6384 155.289 35.5687 155.289 35.4126C155.289 35.2983 155.451 35.2425 155.772 35.2425H158.086C159.814 35.2007 160.679 35.2676 160.679 35.4433V35.4349Z" fill="#11190C"/>
<path d="M69.5438 68.2688C69.5438 68.3887 69.3654 68.45 69.0113 68.45H62.6767C62.3226 68.45 62.1441 68.3859 62.1441 68.2604C62.1441 68.1182 62.3895 68.0485 62.8802 68.0485C63.7445 68.0485 64.2687 67.9705 64.4555 67.8143C64.5391 67.7446 64.5838 67.2706 64.5838 66.3924V55.3988C64.5838 55.4127 64.4806 55.6609 64.2771 56.1404C63.5968 57.8495 62.6098 60.4174 61.3133 63.8496L60.1339 67.2232C59.8969 67.8868 59.7268 68.2186 59.6237 68.2186C59.5038 68.2186 59.3783 68.0485 59.2417 67.7112C58.751 66.4258 57.3681 63.2167 55.0902 58.0865L54.0809 55.8254C54.0809 56.093 54.0809 56.4611 54.0809 56.9267V63.8134C54.0809 66.398 54.106 67.7056 54.1562 67.7335C54.2733 67.9175 54.6803 68.0095 55.3774 68.0095C55.9378 68.0095 56.2166 68.0792 56.2166 68.2214C56.2166 68.3775 56.0381 68.4556 55.6813 68.4556C55.461 68.4556 55.2575 68.4417 55.0707 68.4138C54.8337 68.3859 54.6218 68.3719 54.435 68.3719L51.5102 68.4556C51.2063 68.4556 51.053 68.3915 51.053 68.266C51.053 68.1238 51.5353 68.0457 52.5028 68.0318C52.9099 68.0318 53.1469 67.976 53.2138 67.8617C53.2807 67.7474 53.3141 67.3794 53.3141 66.7576V56.5921C53.3141 55.4183 53.2974 54.7826 53.264 54.6822C53.197 54.4843 53.0521 54.3504 52.8318 54.278C52.6115 54.2083 52.1376 54.1497 51.4071 54.1079C51.1366 54.0939 51 54.0298 51 53.9183C51 53.7622 51.2481 53.6841 51.7444 53.6841H53.5177C54.5298 53.6841 55.2407 53.6785 55.6534 53.6674C55.737 53.8514 56.2277 54.9638 57.1283 57.002C57.5159 57.8496 58.5976 60.3254 60.3793 64.424C60.6999 63.5039 61.0289 62.5977 61.3663 61.7083L64.0847 54.7073C64.252 54.3031 64.4025 53.9713 64.5308 53.7064L68.3031 53.6841C68.8552 53.6841 69.173 53.7064 69.2594 53.7482C69.3431 53.79 69.3849 53.8542 69.3849 53.9378C69.3849 54.08 69.2399 54.1497 68.9528 54.1497C68.4788 54.1497 68.1554 54.1636 67.9853 54.1915C67.5782 54.2473 67.2994 54.3616 67.146 54.5317C67.0596 54.6321 67.0178 55.4601 67.0178 57.0187V66.8998C67.0178 67.4658 67.0847 67.8004 67.2213 67.898C67.4416 68.0262 67.9936 68.0903 68.8747 68.0903H69.028C69.3682 68.0903 69.5355 68.1517 69.5355 68.2716L69.5438 68.2688Z" fill="#11190C"/>
<path d="M77.8361 68.2299C77.8361 68.3498 77.7357 68.4111 77.5322 68.4111H77.2784C77.1781 68.3693 76.0238 68.347 73.8212 68.347C73.3974 68.347 72.9736 68.3609 72.5498 68.3888C72.3295 68.4028 71.9894 68.4111 71.5321 68.4111C71.3118 68.4111 71.2003 68.347 71.2003 68.2215C71.2003 68.11 71.4206 68.0459 71.8611 68.0319C72.5386 68.018 72.9373 67.9511 73.0572 67.8312C73.1743 67.7113 73.2357 67.3042 73.2357 66.61V55.4296C73.2357 54.7353 73.1938 54.345 73.1074 54.2614C73.0042 54.1192 72.533 54.0355 71.691 54.0049C71.3648 53.9937 71.2031 53.9435 71.2031 53.8543C71.2031 53.7428 71.3063 53.687 71.5098 53.687H74.9699C75.2264 53.687 75.7199 53.6954 76.4559 53.7093L77.429 53.687C77.7022 53.687 77.8389 53.7484 77.8389 53.8682C77.8389 53.9742 77.4625 54.0411 76.7069 54.069C76.2775 54.0829 76.0154 54.1471 75.9206 54.2586C75.8258 54.3729 75.7784 54.6684 75.7784 55.148V66.4622C75.7784 67.268 75.8202 67.7057 75.9067 67.7754C76.0935 67.9316 76.6427 68.0236 77.56 68.0514C77.7468 68.0514 77.8389 68.1128 77.8389 68.2327L77.8361 68.2299Z" fill="#11190C"/>
<path d="M90.4466 64.2774C90.4466 65.493 89.8918 66.5274 88.7821 67.3806C87.6724 68.2365 86.3369 68.6631 84.7783 68.6631C83.8638 68.6631 82.7709 68.4289 81.4995 67.9633C81.1593 67.835 80.9056 67.7737 80.7355 67.7737C80.532 67.7737 80.4038 67.9689 80.3536 68.3592C80.3368 68.5599 80.2253 68.6631 80.0218 68.6631C79.8517 68.6631 79.7681 68.5795 79.7681 68.4094C79.7681 68.2951 79.7764 68.2114 79.7932 68.1557C79.9298 67.2941 79.9967 66.4967 79.9967 65.7607C79.9967 65.6185 79.98 65.2253 79.9465 64.5729C79.9298 64.4893 79.9214 64.375 79.9214 64.2328C79.9214 64.0209 80.0218 63.9149 80.2253 63.9149C80.3954 63.9149 80.5125 64.085 80.5822 64.4279C81.0227 66.9679 82.4558 68.2365 84.8787 68.2365C85.9131 68.2365 86.7133 67.9939 87.2821 67.506C87.8509 67.0181 88.1352 66.3294 88.1352 65.44C88.1352 64.6482 87.8592 63.9735 87.31 63.4158C86.7579 62.8582 85.8127 62.3034 84.4744 61.7513C82.8629 61.0878 81.7448 60.4437 81.1175 59.8219C80.4902 59.2002 80.1779 58.4307 80.1779 57.5134C80.1779 56.3396 80.6324 55.3721 81.5385 54.6109C82.4447 53.847 83.5934 53.4678 84.9847 53.4678C85.5618 53.4678 86.3564 53.6295 87.3741 53.9557C87.731 54.07 87.993 54.1258 88.1631 54.1258C88.3499 54.1258 88.4726 54.0979 88.5312 54.0422C88.5897 53.9864 88.6455 53.8386 88.6957 53.5961C88.7291 53.4539 88.8239 53.3842 88.9745 53.3842C89.1445 53.3842 89.2282 53.4678 89.2282 53.6379C89.2282 53.7522 89.2198 53.8358 89.2031 53.8916C89.1529 54.2317 89.1278 54.6416 89.1278 55.1212C89.1278 55.7987 89.1696 56.3368 89.2561 56.7327L89.2812 57.0729C89.2979 57.229 89.2226 57.3071 89.0525 57.3071C88.8657 57.3071 88.7375 57.1453 88.6706 56.8191C88.4838 55.9855 88.0432 55.2912 87.349 54.7308C86.6547 54.1732 85.8741 53.8944 85.0097 53.8944C84.1454 53.8944 83.4874 54.1202 82.9884 54.5719C82.4893 55.0236 82.2383 55.6398 82.2383 56.4149C82.2383 57.3182 82.6036 58.0459 83.3313 58.598C83.7384 58.9102 84.6194 59.348 85.9744 59.9112C87.5665 60.5747 88.7124 61.2495 89.4066 61.9353C90.1009 62.6212 90.4494 63.4019 90.4494 64.2774H90.4466Z" fill="#11190C"/>
<path d="M106.645 63.6799C106.645 63.6521 106.629 63.8416 106.595 64.2515C106.528 65.0712 106.495 65.863 106.495 66.6242C106.495 66.7078 106.511 66.8807 106.545 67.1428C106.578 67.4049 106.595 67.7199 106.595 68.0852V68.2748C106.595 68.4588 106.528 68.5508 106.392 68.5508C106.255 68.5508 106.138 68.4448 106.035 68.2329C105.798 67.7673 105.561 67.4634 105.324 67.3212C104.103 68.2106 102.636 68.6567 100.924 68.6567C98.4315 68.6567 96.3683 67.9318 94.7316 66.4848C93.095 65.0378 92.2781 63.2115 92.2781 61.0061C92.2781 58.8007 93.0281 56.9773 94.5281 55.5721C96.0281 54.1668 97.9659 53.4642 100.339 53.4642C101.203 53.4642 101.894 53.5256 102.41 53.6455C102.926 53.7654 103.567 54.0107 104.331 54.376C104.705 54.56 104.984 54.652 105.17 54.652C105.324 54.652 105.466 54.5377 105.603 54.3118C105.823 53.9159 106.001 53.718 106.138 53.718C106.274 53.718 106.341 53.7737 106.341 53.888C106.341 53.9438 106.325 54.0358 106.291 54.1641C106.104 54.8416 106.012 56.113 106.012 57.9782C106.012 58.2459 105.987 58.402 105.937 58.4438C105.887 58.4857 105.817 58.508 105.734 58.508C105.564 58.508 105.455 58.3741 105.402 58.1065C105.182 56.9773 104.866 56.1353 104.462 55.586C103.631 54.4568 102.326 53.8908 100.548 53.8908C99.1759 53.8908 98.0885 54.2728 97.2939 55.0339C95.8525 56.4057 95.1331 58.4104 95.1331 61.0507C95.1331 63.4095 95.727 65.2385 96.9119 66.5378C97.9463 67.667 99.3181 68.2329 101.03 68.2329C101.911 68.2329 102.717 68.0517 103.445 67.6921C104.172 67.3324 104.733 66.8417 105.123 66.2199C105.564 65.5006 105.876 64.7143 106.063 63.8667C106.129 63.5266 106.241 63.3593 106.394 63.3593C106.564 63.3593 106.648 63.4652 106.648 63.6771L106.645 63.6799Z" fill="#11190C"/>
<path d="M125.159 68.2175C125.159 68.3458 125 68.4071 124.68 68.4071H119.153C118.816 68.4071 118.649 68.3513 118.649 68.237C118.649 68.1227 119.042 68.0474 119.828 68.0056C120.246 67.9777 120.489 67.9192 120.556 67.8272C120.623 67.7352 120.656 67.4089 120.656 66.8457V60.6756H113.003V66.6729C113.003 67.3086 113.061 67.6822 113.181 67.7965C113.298 67.9108 113.697 67.9861 114.377 68.0307C114.818 68.0586 115.038 68.1227 115.038 68.2203C115.038 68.3485 114.868 68.4099 114.531 68.4099H109.013C108.673 68.4099 108.506 68.3541 108.506 68.2398C108.506 68.1255 108.676 68.0558 109.013 68.0279C109.233 68.014 109.462 68 109.699 67.9861C110.073 67.9582 110.31 67.8885 110.41 67.7742C110.46 67.7045 110.485 67.3086 110.485 66.5892V55.4172C110.485 54.7815 110.446 54.4079 110.371 54.2964C110.296 54.1848 110.028 54.1207 109.571 54.1068C109.044 54.0761 108.734 54.0538 108.642 54.0399C108.55 54.0259 108.503 53.9646 108.503 53.8614C108.503 53.7415 108.612 53.683 108.835 53.683C108.902 53.683 109.046 53.6913 109.267 53.7053C109.691 53.7332 110.691 53.7471 112.267 53.7471C113.131 53.7471 113.733 53.736 114.073 53.7164C114.191 53.6941 114.344 53.6858 114.531 53.6858C114.835 53.6858 114.988 53.7555 114.988 53.8977C114.988 54.0259 114.712 54.09 114.163 54.09C113.613 54.09 113.282 54.143 113.17 54.249C113.059 54.3549 113.006 54.6923 113.006 55.2583V60.1487H120.659V55.5789C120.659 54.8289 120.592 54.3856 120.456 54.249C120.319 54.1151 119.845 54.0538 119.031 54.0677C118.777 54.0677 118.649 54.0036 118.649 53.8754C118.649 53.7471 118.794 53.683 119.081 53.683H124.624C124.981 53.683 125.159 53.7471 125.159 53.8726C125.159 53.998 124.785 54.0705 124.041 54.0845C123.821 54.0845 123.659 54.0984 123.559 54.1263C123.389 54.1681 123.283 54.2462 123.241 54.3605C123.199 54.4748 123.177 54.8066 123.177 55.3559V66.6283C123.177 67.3058 123.219 67.7017 123.302 67.816C123.469 67.9721 123.955 68.0502 124.758 68.0502C125.025 68.0223 125.159 68.0781 125.159 68.2203V68.2175Z" fill="#11190C"/>
<path d="M143.797 68.2367C143.797 68.365 143.677 68.4263 143.44 68.4263H136.879C136.556 68.4263 136.397 68.3734 136.397 68.2646C136.397 68.1559 136.609 68.0918 137.033 68.0639C137.914 67.9942 138.354 67.8743 138.354 67.7042C138.354 67.5202 136.04 65.2256 131.412 60.8175V66.9235C131.412 67.417 131.504 67.7237 131.691 67.8436C131.878 67.9635 132.377 68.0221 133.191 68.0221C133.378 68.0221 133.47 68.0918 133.47 68.234C133.47 68.3594 133.35 68.4236 133.113 68.4236H127.213C126.959 68.4236 126.831 68.3622 126.831 68.2423C126.831 68.1085 127.143 68.0332 127.771 68.0221C128.348 68.0081 128.685 67.9022 128.788 67.7042C128.839 67.6345 128.864 67.1884 128.864 66.3687V54.5666C128.847 54.271 128.376 54.1204 127.456 54.1204C127.037 54.1204 126.831 54.0424 126.831 53.8862C126.831 53.758 126.976 53.6967 127.266 53.6967C127.352 53.6967 127.464 53.705 127.601 53.719C127.874 53.7468 128.635 53.7608 129.881 53.7608C131.214 53.7608 132.059 53.7468 132.418 53.719C132.605 53.705 132.803 53.6967 133.007 53.6967C133.313 53.6967 133.467 53.7747 133.467 53.9309C133.467 54.0145 133.419 54.0675 133.325 54.0898C133.23 54.1121 132.934 54.1288 132.435 54.1428C131.936 54.1567 131.641 54.2125 131.546 54.3128C131.451 54.4104 131.404 54.7311 131.404 55.2664V60.4356L133.564 58.6344C136.835 55.8965 138.471 54.4718 138.471 54.3574C138.471 54.1734 138.073 54.087 137.275 54.1009C136.768 54.1149 136.511 54.0452 136.511 53.889C136.511 53.7887 136.629 53.7329 136.868 53.719C137.105 53.705 137.928 53.6967 139.336 53.6967H140.735C141.329 53.6967 141.667 53.705 141.753 53.719C141.923 53.7468 142.007 53.8165 142.007 53.9309C142.007 54.087 141.82 54.1651 141.446 54.1651C140.666 54.1511 140.164 54.1651 139.944 54.2097C139.723 54.2543 139.503 54.3714 139.28 54.5638C138.182 55.5285 136.509 56.9727 134.259 58.8965L133.578 59.4318L133.252 59.733C133.352 59.8333 133.779 60.2125 134.524 60.8789C135.948 62.1084 137.992 64.0796 140.655 66.7925C141.215 67.3585 141.6 67.6958 141.812 67.8102C142.024 67.9245 142.436 67.9942 143.047 68.0221C143.538 68.0499 143.786 68.1196 143.786 68.234L143.797 68.2367Z" fill="#11190C"/>
<path d="M159.562 68.268C159.562 68.3879 159.433 68.4493 159.18 68.4493C159.01 68.4493 158.856 68.4409 158.722 68.427L155.494 68.3433L152.265 68.427C152.145 68.4409 152.02 68.4493 151.883 68.4493C151.543 68.4493 151.376 68.3768 151.376 68.229C151.376 68.0673 151.604 67.9836 152.062 67.9836C153.553 67.9697 154.3 67.8442 154.3 67.61C154.3 67.5961 154.284 67.5403 154.247 67.4455L154.038 66.8851L153.907 66.5896C153.754 66.1518 153.383 65.1816 152.789 63.6844H147.352C146.335 65.9455 145.827 67.2448 145.827 67.5822C145.827 67.7801 145.928 67.9 146.131 67.9418C146.181 67.9558 146.605 67.9836 147.403 68.0255C147.893 68.0394 148.141 68.1091 148.141 68.2374C148.141 68.3796 147.921 68.4493 147.481 68.4493C146.7 68.4493 145.794 68.4214 144.759 68.3656C144.506 68.3517 144.241 68.3433 143.97 68.3433C143.7 68.3433 143.435 68.3656 143.181 68.413C143.045 68.4353 142.936 68.4493 142.85 68.4493C142.613 68.4493 142.493 68.3851 142.493 68.2569C142.493 68.1286 142.76 68.0589 143.293 68.045C143.828 68.031 144.213 67.9641 144.45 67.8442C144.687 67.7244 144.874 67.4929 145.01 67.1528C147.191 61.9362 148.967 57.7484 150.336 54.5867C150.375 54.4194 150.453 54.2326 150.573 54.0235L150.681 53.6359C150.732 53.4798 150.799 53.4017 150.885 53.4017C150.935 53.4017 150.977 53.4436 151.013 53.53C151.233 54.082 151.733 55.2335 152.513 56.9845C153.124 58.3562 154.641 61.794 157.063 67.3033C157.2 67.624 157.373 67.8275 157.585 67.9139C157.797 68.0004 158.234 68.0533 158.895 68.0673C159.336 68.0812 159.556 68.1481 159.556 68.268H159.562ZM152.672 63.1936C152.396 62.5579 151.939 61.504 151.3 60.0347L150.079 57.096C149.365 58.6601 148.504 60.6899 147.5 63.1909H152.672V63.1936Z" fill="#11190C"/>
<path d="M162.522 67.9489C162.522 68.2388 162.419 68.487 162.216 68.6933C162.012 68.8996 161.764 69 161.471 69C161.178 69 160.93 68.8968 160.727 68.6933C160.523 68.4898 160.42 68.2388 160.42 67.9433C160.42 67.6477 160.523 67.408 160.732 67.2072C160.941 67.0037 161.192 66.9033 161.488 66.9033C161.769 66.9033 162.012 67.0065 162.216 67.2128C162.419 67.4191 162.522 67.6645 162.522 67.9489V67.9489ZM162.414 67.9433C162.414 67.6784 162.322 67.4554 162.135 67.2686C161.948 67.0845 161.722 66.9925 161.457 66.9925C161.206 66.9925 160.989 67.0873 160.805 67.2769C160.621 67.4665 160.529 67.6896 160.529 67.9489C160.529 68.2082 160.621 68.4396 160.805 68.6264C160.989 68.8132 161.212 68.908 161.471 68.908C161.73 68.908 161.954 68.8132 162.138 68.6264C162.322 68.4396 162.414 68.211 162.414 67.9433ZM162.026 68.4842C162.026 68.54 161.979 68.565 161.887 68.565C161.795 68.565 161.714 68.526 161.652 68.4507C161.63 68.4201 161.613 68.3866 161.605 68.3531C161.597 68.3253 161.585 68.2472 161.572 68.1217C161.563 68.0465 161.538 67.9935 161.493 67.9628C161.457 67.9405 161.399 67.9266 161.315 67.921V68.3922C161.315 68.4479 161.321 68.4758 161.332 68.4786C161.351 68.487 161.388 68.4898 161.443 68.4898C161.468 68.4898 161.482 68.4981 161.482 68.5149C161.482 68.5316 161.466 68.54 161.435 68.54H161.006C160.969 68.54 160.95 68.5316 160.95 68.5176C160.95 68.5037 160.972 68.4953 161.014 68.4953C161.056 68.4953 161.084 68.4926 161.092 68.4842C161.1 68.4786 161.106 68.4535 161.106 68.4145V67.4609C161.106 67.4191 161.103 67.3912 161.095 67.3829C161.086 67.3745 161.064 67.3689 161.025 67.3689H160.989C160.964 67.3689 160.95 67.3606 160.95 67.3466C160.95 67.3327 160.964 67.3243 160.989 67.3243H161.457C161.577 67.3243 161.672 67.3494 161.742 67.3996C161.811 67.4498 161.848 67.5167 161.848 67.6004C161.848 67.7007 161.797 67.7788 161.697 67.8318C161.641 67.8624 161.56 67.882 161.457 67.8903C161.446 67.8903 161.443 67.8903 161.443 67.8987C161.443 67.9015 161.449 67.9043 161.457 67.9043C161.583 67.9154 161.672 67.9544 161.725 68.0214C161.778 68.0883 161.814 68.2054 161.828 68.3727C161.836 68.4647 161.867 68.5093 161.914 68.5093C161.926 68.5093 161.928 68.5093 161.928 68.5037C161.928 68.5037 161.928 68.5009 161.926 68.4981C161.923 68.487 161.92 68.4786 161.92 68.4758C161.92 68.4424 161.937 68.4256 161.97 68.4256C162.006 68.4256 162.026 68.4424 162.026 68.4786V68.4842ZM161.616 67.6115C161.616 67.4526 161.544 67.3745 161.401 67.3745C161.36 67.3745 161.335 67.3801 161.326 67.3912C161.318 67.4024 161.315 67.4163 161.315 67.4359V67.8708C161.516 67.8708 161.616 67.7844 161.616 67.6115Z" fill="#11190C"/>
</svg>
