<svg width="214" height="103" viewBox="0 0 214 103" fill="none" xmlns="http://www.w3.org/2000/svg">
<mask id="mask0_2258_726" style="mask-type:luminance" maskUnits="userSpaceOnUse" x="39" y="45" width="136" height="13">
<path d="M174.498 45.4283L39.0001 45.4283V57.3492L174.498 57.3492V45.4283Z" fill="white"/>
</mask>
<g mask="url(#mask0_2258_726)">
<path d="M48.5012 53.4131C48.5012 53.9119 48.4452 54.396 48.3308 54.8636C48.2188 55.3313 47.9878 55.7514 47.6424 56.1222C47.2947 56.4947 46.7929 56.7917 46.1371 57.0148C45.4791 57.2379 44.6063 57.3496 43.5164 57.3496C42.7113 57.3496 42.0252 57.256 41.4581 57.0706C40.891 56.8852 40.4266 56.6292 40.0579 56.306C39.6892 55.9827 39.4208 55.5971 39.2505 55.1508C39.0801 54.7045 38.9961 54.2221 38.9961 53.7003V53.0948H41.6495V53.6838C41.6495 54.332 41.7942 54.8341 42.0836 55.1902C42.3729 55.5462 42.9213 55.7234 43.7288 55.7234C44.1535 55.7234 44.5036 55.6759 44.779 55.5807C45.0543 55.4839 45.2737 55.3444 45.4371 55.1573C45.6004 54.9719 45.7101 54.7406 45.7661 54.4633C45.8221 54.1876 45.8501 53.8742 45.8501 53.523V45.6994H48.5012V53.4131Z" fill="#11190C"/>
<path d="M57.4911 47.0544C56.686 47.0544 55.9881 47.1758 55.4024 47.4203C54.8144 47.6648 54.3382 47.9913 53.9695 48.3999C53.6008 48.8085 53.3301 49.2745 53.1528 49.7946C52.9754 50.3148 52.8867 50.8464 52.8867 51.3879C52.8867 51.9294 52.9754 52.461 53.1528 52.9812C53.3301 53.5014 53.6008 53.9657 53.9695 54.3759C54.3382 54.7845 54.8144 55.1111 55.4024 55.3555C55.9881 55.6001 56.686 55.7231 57.4911 55.7231C58.2962 55.7231 58.9939 55.6017 59.5797 55.3555C60.1654 55.1111 60.6438 54.7845 61.0126 54.3759C61.3813 53.9674 61.652 53.5014 61.8294 52.9812C62.0067 52.461 62.0931 51.9294 62.0931 51.3879C62.0931 50.8464 62.0044 50.3148 61.8294 49.7946C61.652 49.2745 61.3789 48.8101 61.0126 48.3999C60.6438 47.9913 60.1678 47.6648 59.5797 47.4203C58.9939 47.1758 58.2962 47.0544 57.4911 47.0544ZM57.4911 45.4283C58.6229 45.4283 59.638 45.5874 60.5365 45.9074C61.435 46.2257 62.1935 46.6557 62.8165 47.1971C63.4396 47.7386 63.9156 48.372 64.2494 49.094C64.5807 49.816 64.7465 50.5822 64.7465 51.3896C64.7465 52.1969 64.5807 52.9779 64.2494 53.6999C63.9156 54.4219 63.4396 55.0536 62.8165 55.5968C62.1935 56.1382 61.4326 56.5665 60.5365 56.8799C59.638 57.1933 58.6229 57.3492 57.4911 57.3492C56.3592 57.3492 55.3441 57.1917 54.4456 56.8799C53.5472 56.5665 52.7887 56.1382 52.1656 55.5968C51.5425 55.0553 51.0664 54.4235 50.7327 53.6999C50.4013 52.9779 50.2357 52.2067 50.2357 51.3896C50.2357 50.5724 50.4013 49.8176 50.7327 49.094C51.0664 48.372 51.5425 47.7403 52.1656 47.1971C52.7887 46.6557 53.5495 46.2241 54.4456 45.9074C55.3441 45.5891 56.3592 45.4283 57.4911 45.4283Z" fill="#11190C"/>
<path d="M76.3027 45.6994V50.2265H69.4091V45.6994H66.758V57.0788H69.4091V51.9462H76.3027V57.0788H78.9561V45.6994H76.3027Z" fill="#11190C"/>
<path d="M91.5784 45.6994V54.0826H91.5364L84.6217 45.6994H81.8213V57.0788H84.344V48.712H84.4093L91.303 57.0788H94.1035V45.6994H91.5784Z" fill="#11190C"/>
<path d="M106.787 45.6994V54.0826H106.745L99.8301 45.6994H97.0297V57.0788H99.5548V48.712H99.6178L106.512 57.0788H109.312V45.6994H106.787Z" fill="#11190C"/>
<path d="M121.67 45.6994L117.726 50.7992L113.717 45.6994H110.642L116.326 52.6157V57.0788H118.977V52.6157L124.641 45.6994H121.67Z" fill="#11190C"/>
<path d="M146.457 45.6994L143.636 54.4009H143.593L140.623 45.6994H137.909L134.854 54.4009H134.81L132.074 45.6994H129.379L133.37 57.0788H136.105L139.202 48.3773H139.244L142.277 57.0788H144.973L149.15 45.6994H146.457Z" fill="#11190C"/>
<path d="M154.475 47.6602H154.539L156.809 52.5533H152.186L154.478 47.6602H154.475ZM153.117 45.6994L147.304 57.0788H150.041L151.462 54.0662H157.507L158.928 57.0788H161.77L155.936 45.6994H153.114H153.117Z" fill="#11190C"/>
<path d="M164.805 53.2848C164.805 53.7196 164.903 54.0921 165.101 54.4006C165.3 54.7091 165.575 54.9617 165.928 55.157C166.279 55.3539 166.689 55.4966 167.148 55.5869C167.608 55.6771 168.107 55.7231 168.644 55.7231C169.225 55.7231 169.72 55.6722 170.128 55.5705C170.539 55.4704 170.87 55.3391 171.125 55.18C171.379 55.0208 171.564 54.837 171.675 54.6303C171.79 54.4219 171.845 54.2135 171.845 54.0002C171.845 53.5654 171.715 53.2437 171.453 53.0354C171.192 52.827 170.905 52.6826 170.595 52.5972C170.058 52.4479 169.433 52.3068 168.719 52.1739C168.005 52.041 167.124 51.8687 166.077 51.657C165.425 51.529 164.884 51.3633 164.455 51.1549C164.023 50.9482 163.68 50.7168 163.426 50.4609C163.171 50.2065 162.992 49.9358 162.884 49.6486C162.779 49.3614 162.725 49.0694 162.725 48.7724C162.725 48.1981 162.884 47.7025 163.202 47.2825C163.519 46.8624 163.941 46.5145 164.464 46.2389C164.987 45.9632 165.582 45.7581 166.247 45.6252C166.91 45.4956 167.584 45.4283 168.261 45.4283C169.052 45.4283 169.799 45.5054 170.499 45.6596C171.199 45.8139 171.813 46.0436 172.345 46.3521C172.875 46.6606 173.295 47.0413 173.608 47.4925C173.918 47.9437 174.074 48.4672 174.074 49.0612H171.423C171.351 48.3277 171.02 47.8108 170.427 47.5073C169.831 47.2053 169.076 47.0527 168.156 47.0527C167.846 47.0527 167.526 47.0757 167.201 47.1249C166.877 47.1725 166.578 47.2513 166.31 47.3645C166.042 47.4761 165.817 47.627 165.64 47.819C165.463 48.011 165.375 48.2506 165.375 48.5361C165.375 48.9397 165.543 49.2564 165.874 49.4845C166.205 49.7126 166.642 49.8849 167.178 50.0014C167.235 50.0129 167.456 50.0572 167.846 50.1376C168.236 50.2163 168.669 50.3049 169.15 50.4001C169.631 50.4953 170.1 50.5888 170.56 50.6791C171.02 50.7693 171.349 50.8366 171.547 50.8793C172.042 50.9974 172.473 51.1566 172.84 51.3584C173.206 51.5602 173.514 51.7916 173.762 52.0525C174.009 52.3117 174.194 52.5907 174.312 52.8893C174.434 53.1863 174.492 53.4849 174.492 53.782C174.492 54.4186 174.319 54.9634 173.974 55.4163C173.626 55.8675 173.171 56.2367 172.606 56.5238C172.04 56.811 171.398 57.021 170.676 57.154C169.956 57.2869 169.22 57.3525 168.471 57.3525C167.608 57.3525 166.796 57.2737 166.032 57.1129C165.269 56.9538 164.605 56.7093 164.039 56.3794C163.472 56.0496 163.019 55.6279 162.681 55.1127C162.34 54.5975 162.163 53.9887 162.152 53.288H164.802L164.805 53.2848Z" fill="#11190C"/>
</g>
</svg>
