<svg width="214" height="103" viewBox="0 0 214 103" fill="none" xmlns="http://www.w3.org/2000/svg">
<g clip-path="url(#clip0_154_8271)">
<path d="M69.5525 34.9999C69.8097 35.0268 70.0666 35.0576 70.3246 35.0797C72.3701 35.2544 74.1643 35.9996 75.685 37.3984C75.9758 37.666 76.3182 37.89 76.6667 38.0795C77.514 38.5399 78.4049 38.1797 78.7394 37.2705C78.7554 37.2273 78.7706 37.1836 78.7938 37.1183C80.0068 37.3615 81.2161 37.6039 82.4891 37.8587C82.3019 38.2927 82.1607 38.7106 81.9514 39.0904C81.1313 40.5797 79.9067 41.5277 78.1997 41.7777C76.7735 41.9868 75.4617 41.6627 74.264 40.8686C73.9531 40.6626 73.6447 40.4523 73.3442 40.2311C72.2149 39.4005 70.9391 39.0042 69.5513 38.9109C68.1843 38.8191 66.8685 39.0115 65.6116 39.5648C64.0918 40.2339 62.9752 41.3478 62.1359 42.7573C61.2726 44.2066 60.8801 45.778 61.0001 47.4624C61.1237 49.1961 61.7734 50.7279 62.8548 52.0814C64.1786 53.7377 65.9232 54.6252 68.0063 54.856C69.7341 55.0475 71.3784 54.7614 72.8902 53.8643C73.9507 53.2353 74.77 52.3642 75.4045 51.3125C75.4385 51.256 75.4741 51.2007 75.5197 51.1274C76.6679 51.7544 77.8097 52.3774 78.9858 53.0197C78.7666 53.3535 78.5738 53.6792 78.3501 53.9821C76.9935 55.8192 75.1957 57.0577 73.0698 57.8398C71.3092 58.4877 69.4897 58.6952 67.625 58.5225C62.3839 58.0377 58.0865 54.1384 57.2052 48.9533C56.4703 44.6305 57.7117 40.9179 60.9689 37.9489C62.6608 36.4067 64.687 35.5132 66.9485 35.163C67.3294 35.1041 67.7159 35.0797 68.0995 35.0372C68.1579 35.0308 68.2151 35.0128 68.2727 35.0003C68.6992 35.0003 69.126 35.0003 69.5525 35.0003V34.9999Z" fill="#11190C"/>
<path d="M112.579 41.9714H116.223V43.6177C116.283 43.5865 116.314 43.5781 116.334 43.5588C117.456 42.5079 118.8 41.9485 120.316 41.8027C121.996 41.6412 123.629 41.8528 125.171 42.5676C127.362 43.5841 128.734 45.2986 129.3 47.6325C129.837 49.8462 129.714 52.0298 128.744 54.1161C127.817 56.1087 126.252 57.3964 124.168 58.0395C122.487 58.558 120.778 58.6473 119.064 58.2022C118.035 57.9349 117.112 57.4617 116.356 56.6956C116.33 56.6692 116.297 56.6492 116.229 56.5959V56.8824C116.229 60.0104 116.229 63.138 116.229 66.2661C116.229 66.583 116.229 66.585 115.923 66.6207C114.832 66.7477 113.741 66.8735 112.65 66.9989C112.631 67.0009 112.612 66.9933 112.579 66.9881V41.9714H112.579ZM126.027 50.0774C126.027 49.9708 126.031 49.8638 126.025 49.7576C126.019 49.6446 126.005 49.532 125.99 49.4199C125.786 47.9638 125.129 46.7754 123.871 45.9825C122.571 45.1635 121.152 45.0193 119.681 45.3883C118.429 45.7024 117.48 46.4377 116.861 47.5748C116.289 48.6229 116.138 49.7528 116.282 50.926C116.416 52.0078 116.823 52.9706 117.595 53.7555C119.059 55.2432 121.695 55.5842 123.579 54.51C125.288 53.536 125.947 51.9613 126.027 50.0778V50.0774Z" fill="#11190C"/>
<path d="M93.4134 43.6254C93.4134 43.3322 93.4134 43.0745 93.4134 42.8169C93.4134 42.5833 93.4166 42.3501 93.4126 42.1165C93.411 42.0103 93.4426 41.9611 93.5602 41.9615C94.7396 41.9651 95.9193 41.9643 97.0987 41.9655C97.1179 41.9655 97.1367 41.9731 97.1695 41.9803V58.3525H93.4198V56.7174C93.3626 56.749 93.339 56.7566 93.3234 56.7723C92.3389 57.7467 91.1263 58.2752 89.7829 58.4759C87.6898 58.7884 85.7055 58.419 83.8921 57.3088C81.9306 56.108 80.7224 54.3478 80.254 52.1057C79.7939 49.9028 80.0411 47.7752 81.1765 45.8047C82.3019 43.8518 84.0017 42.6246 86.168 42.0572C87.9674 41.586 89.7529 41.6137 91.4887 42.3641C92.16 42.6542 92.7833 43.0192 93.3042 43.5421C93.3258 43.5637 93.353 43.5798 93.4138 43.6254H93.4134ZM93.5154 50.1712C93.5178 47.403 91.3859 45.2121 88.6823 45.2037C85.9484 45.1953 83.7173 47.415 83.7093 50.1516C83.7013 52.9382 85.868 55.1203 88.6511 55.1283C91.3635 55.1359 93.513 52.9459 93.5154 50.1712Z" fill="#11190C"/>
<path d="M134.722 51.4177C134.854 51.7907 134.935 52.1233 135.083 52.423C135.993 54.2668 137.494 55.1908 139.541 55.2232C140.458 55.2377 141.345 55.0802 142.166 54.6451C142.651 54.3874 143.053 54.0365 143.341 53.5597C143.374 53.5048 143.461 53.4503 143.523 53.4499C144.909 53.4439 146.296 53.4455 147.682 53.4467C147.708 53.4467 147.734 53.4539 147.791 53.4627C147.754 53.5621 147.724 53.6538 147.686 53.742C147.02 55.2962 145.918 56.4689 144.459 57.2839C141.963 58.6786 139.311 59.0352 136.6 58.0792C133.411 56.9546 131.483 54.6583 130.969 51.2995C130.389 47.5055 132.619 43.7544 136.204 42.3825C138.817 41.3825 141.386 41.5075 143.821 42.9214C146.073 44.2292 147.43 46.2057 147.897 48.7773C148.035 49.5353 148.056 50.3006 147.978 51.0683C147.943 51.4177 147.944 51.4177 147.587 51.4177C143.415 51.4177 139.242 51.4177 135.07 51.4177H134.722ZM144.015 48.163C143.652 46.737 141.801 45.0442 139.381 45.1067C137.336 45.1596 135.217 46.6301 134.995 48.163H144.015Z" fill="#11190C"/>
<path d="M98.8017 53.445C99.1357 53.445 99.4485 53.445 99.761 53.445C100.561 53.445 101.361 53.4482 102.161 53.4418C102.299 53.4406 102.351 53.4846 102.389 53.6189C102.935 55.5124 105.031 55.6964 106.09 54.8898C106.752 54.3854 106.991 53.705 106.832 52.8913C106.756 52.499 106.512 52.2077 106.203 51.9701C105.715 51.5939 105.151 51.3747 104.568 51.2024C103.847 50.9893 103.12 50.7989 102.445 50.452C100.749 49.5797 99.8898 48.1986 99.9502 46.2878C100.009 44.4335 100.978 43.1457 102.611 42.3796C104.72 41.39 107.124 41.7302 108.921 43.6586C109.241 44.0024 109.52 44.3846 109.84 44.7769C108.79 45.2476 107.791 45.696 106.786 46.1464C106.696 46.0089 106.621 45.8839 106.537 45.7657C105.903 44.8806 104.888 44.843 104.149 45.2028C103.41 45.5622 103.265 46.5518 103.854 47.1268C104.17 47.4361 104.565 47.6176 104.967 47.7791C105.776 48.1036 106.603 48.3865 107.395 48.7479C107.954 49.0031 108.499 49.3165 108.995 49.6787C110.293 50.6255 110.74 51.9717 110.643 53.5231C110.493 55.9167 108.626 58.0539 105.831 58.487C104.5 58.6934 103.193 58.6004 101.965 58.007C100.169 57.1388 99.1069 55.7088 98.8033 53.7275C98.7905 53.6445 98.8017 53.5576 98.8017 53.4446V53.445Z" fill="#11190C"/>
<path d="M153.702 41.9785V43.6481C154.802 42.1741 156.306 41.7662 158 41.7554V45.1763C157.642 45.21 157.283 45.224 156.931 45.2805C155.296 45.5421 154.032 46.8203 153.78 48.4682C153.73 48.7964 153.703 49.1313 153.703 49.4631C153.697 52.3375 153.699 55.2119 153.699 58.0863C153.699 58.1717 153.699 58.2574 153.699 58.3564H150.045V41.9785H153.702Z" fill="#11190C"/>
</g>
<defs>
<clipPath id="clip0_154_8271">
<rect width="101" height="32" fill="white" transform="translate(57 35)"/>
</clipPath>
</defs>
</svg>
