<svg width="214" height="103" viewBox="0 0 214 103" fill="none" xmlns="http://www.w3.org/2000/svg">
<path d="M49.7149 51.6269C48.6942 52.4905 47.3595 52.8046 45.7107 52.8046H43.3554C43.3554 52.8046 43.3554 59.3211 43.3554 59.4781C43.3554 59.5566 43.2769 59.8707 42.9628 59.8707C42.6488 59.8707 41.5496 59.8707 41.3926 59.8707C41.157 59.8707 41 59.7137 41 59.4781C41 59.2426 41 44.0112 41 43.7756C41 43.6186 41.157 43.3831 41.3926 43.3831C41.6281 43.3831 45.6322 43.3831 45.6322 43.3831C47.2025 43.3831 48.6157 43.6971 49.6364 44.5608C50.657 45.4244 51.2066 46.5236 51.2066 48.0938C51.2851 49.6641 50.7355 50.7633 49.7149 51.6269ZM47.9091 45.8955C47.281 45.5029 46.5744 45.2674 45.5537 45.2674H43.3554V50.9203H45.4752C46.4959 50.9203 47.281 50.6847 47.8306 50.2922C48.3802 49.8996 48.8512 49.1145 48.8512 48.0938C48.9298 47.0732 48.4587 46.288 47.9091 45.8955Z" fill="#11190C"/>
<path d="M61.4918 60.1063C56.8596 60.1063 53.0125 56.8873 53.0125 51.6269C53.0125 46.3666 56.8596 43.1476 61.4918 43.1476C66.124 43.1476 69.9711 46.3666 69.9711 51.6269C69.9711 56.8873 66.124 60.1063 61.4918 60.1063ZM61.4918 45.1104C58.1158 45.1104 55.3678 47.5443 55.3678 51.5484C55.3678 55.5525 58.1158 57.9864 61.4918 57.9864C64.8678 57.9864 67.6158 55.5525 67.6158 51.5484C67.6158 47.5443 64.8678 45.1104 61.4918 45.1104Z" fill="#11190C"/>
<path d="M80.6488 59.7922C79.0786 59.7922 73.4257 59.7922 73.2687 59.7922C73.1116 59.7922 72.8761 59.6352 72.8761 59.3996C72.8761 56.9658 72.8761 43.9327 72.8761 43.6972C72.8761 43.4616 73.1116 43.3046 73.2687 43.3046C73.4257 43.3046 74.6034 43.3046 74.8389 43.3046C75.0744 43.3046 75.2315 43.5401 75.2315 43.6972C75.2315 43.8542 75.2315 57.7509 75.2315 57.7509C75.2315 57.7509 80.4133 57.7509 80.6488 57.7509C80.8844 57.7509 81.0414 57.9079 81.0414 58.1434C81.0414 58.6145 81.0414 59.2426 81.0414 59.3996C81.0414 59.6352 80.8844 59.7922 80.6488 59.7922Z" fill="#11190C"/>
<path d="M93.7604 43.6972C93.6818 43.7757 88.2645 52.9616 88.2645 52.9616C88.2645 52.9616 88.2645 59.3211 88.2645 59.4782C88.2645 59.6352 88.1075 59.8707 87.8719 59.8707C87.3223 59.8707 86.4587 59.8707 86.3017 59.8707C86.0661 59.8707 85.9091 59.7137 85.9091 59.4782C85.9091 59.2426 85.9091 52.9616 85.9091 52.9616C85.9091 52.9616 80.4132 43.8542 80.4132 43.7757C80.3347 43.6972 80.4132 43.4616 80.5703 43.4616C80.7273 43.4616 82.1405 43.4616 82.3761 43.4616C82.6116 43.4616 82.8471 43.6187 82.9256 43.7757C83.0042 43.9327 87.0083 50.9988 87.0083 50.9988C87.0083 50.9988 91.0124 43.9327 91.0909 43.7757C91.1694 43.6187 91.405 43.4616 91.6405 43.4616C91.8761 43.4616 93.3678 43.4616 93.5248 43.4616C93.7604 43.3831 93.8389 43.6187 93.7604 43.6972Z" fill="#11190C"/>
<path d="M117.628 43.6971C117.628 43.7756 113.781 56.9657 113.074 59.3996C112.996 59.6351 112.682 59.7922 112.525 59.7922C112.446 59.7922 111.426 59.7922 110.955 59.7922C110.798 59.7922 110.641 59.6351 110.562 59.3996C110.484 59.1641 106.715 46.5236 106.715 46.5236C106.715 46.5236 102.946 59.1641 102.868 59.3996C102.789 59.6351 102.632 59.7922 102.475 59.7922C102.004 59.7922 100.984 59.7922 100.905 59.7922C100.827 59.7922 100.434 59.6351 100.355 59.3996C99.6489 56.8872 95.8803 43.7756 95.8018 43.6971C95.8018 43.5401 95.8803 43.3831 96.0373 43.3831C96.1943 43.3831 97.1365 43.3831 97.6861 43.3831C98.0001 43.3831 98.1571 43.6186 98.2356 43.6971C98.2356 43.7756 101.69 56.3376 101.69 56.3376C101.69 56.3376 105.459 43.9327 105.537 43.6971C105.616 43.4616 105.773 43.3831 105.93 43.3831C106.008 43.3831 107.343 43.3831 107.579 43.3831C107.814 43.3831 107.971 43.6186 108.05 43.6971C108.128 43.7756 111.74 56.3376 111.74 56.3376C111.74 56.3376 115.194 43.8542 115.194 43.6971C115.194 43.5401 115.43 43.3831 115.744 43.3831C116.058 43.3831 117.236 43.3831 117.393 43.3831C117.628 43.3831 117.628 43.6186 117.628 43.6971Z" fill="#11190C"/>
<path d="M126.971 60.1063C122.339 60.1063 118.492 56.8873 118.492 51.6269C118.492 46.3666 122.339 43.1476 126.971 43.1476C131.603 43.1476 135.45 46.3666 135.45 51.6269C135.45 56.8873 131.603 60.1063 126.971 60.1063ZM126.971 45.1104C123.595 45.1104 120.847 47.5443 120.847 51.5484C120.847 55.5525 123.595 57.9864 126.971 57.9864C130.347 57.9864 133.095 55.5525 133.095 51.5484C133.095 47.5443 130.347 45.1104 126.971 45.1104Z" fill="#11190C"/>
<path d="M145.971 60.1063C141.339 60.1063 137.492 56.8873 137.492 51.6269C137.492 46.3666 141.339 43.1476 145.971 43.1476C150.603 43.1476 154.45 46.3666 154.45 51.6269C154.45 56.8873 150.525 60.1063 145.971 60.1063ZM145.971 45.1104C142.595 45.1104 139.847 47.5443 139.847 51.5484C139.847 55.5525 142.595 57.9864 145.971 57.9864C149.347 57.9864 152.095 55.5525 152.095 51.5484C152.095 47.5443 149.269 45.1104 145.971 45.1104Z" fill="#11190C"/>
<path d="M168.425 57.6724C167.248 58.7715 165.128 59.7922 162.301 59.7922C162.301 59.7922 157.905 59.7922 157.748 59.7922C157.591 59.7922 157.355 59.6352 157.355 59.3996C157.355 56.9658 157.355 43.9327 157.355 43.6972C157.355 43.4616 157.512 43.3046 157.748 43.3046C157.983 43.3046 162.301 43.3046 162.301 43.3046C165.128 43.3046 167.248 44.3253 168.425 45.4244C169.603 46.5236 170.938 48.4079 170.938 51.4699C171.016 54.6889 169.603 56.5732 168.425 57.6724ZM166.698 46.9162C165.756 46.0525 164.343 45.4244 162.301 45.4244H159.632V57.9079H162.301C164.264 57.9079 165.756 57.2013 166.698 56.4162C167.64 55.5525 168.661 54.1393 168.661 51.7054C168.661 49.193 167.562 47.7798 166.698 46.9162Z" fill="#11190C"/>
<path d="M171.017 44.7178C171.017 43.9327 171.645 43.2261 172.508 43.2261C173.372 43.2261 174 43.9327 174 44.7178C174 45.503 173.372 46.2096 172.508 46.2096C171.645 46.1311 171.017 45.503 171.017 44.7178ZM173.765 44.6393C173.765 43.9327 173.215 43.3046 172.43 43.3046C171.723 43.3046 171.095 43.9327 171.095 44.6393C171.095 45.3459 171.645 45.974 172.43 45.974C173.215 45.974 173.765 45.4245 173.765 44.6393ZM171.88 43.8542H172.587C172.901 43.8542 173.136 44.0112 173.136 44.3253C173.136 44.5608 172.979 44.7178 172.822 44.7964L173.215 45.3459H172.901L172.508 44.7964H172.194V45.3459H171.88V43.8542ZM172.587 44.6393C172.744 44.6393 172.901 44.5608 172.901 44.4038C172.901 44.2468 172.822 44.1683 172.587 44.1683H172.194V44.6393H172.587Z" fill="#11190C"/>
</svg>
