<svg width="214" height="103" viewBox="0 0 214 103" fill="none" xmlns="http://www.w3.org/2000/svg">
<g clip-path="url(#clip0_154_8231)">
<path d="M62.695 60.6873H76.3071V57.8309H65.89V52.9468H76.3071V50.0903H65.89V45.3602H76.3071V42.5026H62.695V60.6873ZM170.001 45.359V42.5026H156.389V60.6873H170.001V57.8309H159.584V52.9468H170.001V50.0903H159.584V45.3602L170.001 45.359ZM58.1459 48.2954V48.2448C58.1827 46.7894 57.6408 45.3787 56.639 44.3223C55.1968 43.0508 53.3125 42.3972 51.3928 42.5026H43.2878V60.6873H46.4828V45.4119H51.133C53.4957 45.4119 54.9004 46.4769 54.9004 48.4247V48.4764C54.9004 50.3219 53.4463 51.5162 51.16 51.5162L48.507 51.5362L54.9521 60.6861H58.7196L53.8084 53.8049C55.0633 53.5428 56.1859 52.8473 56.9792 51.8403C57.7726 50.8333 58.186 49.5791 58.1471 48.2977L58.1459 48.2954ZM108.629 42.1911C107.38 42.162 106.138 42.3845 104.977 42.8451C103.816 43.3058 102.759 43.9953 101.87 44.8726C100.98 45.7499 100.276 46.7972 99.8 47.952C99.3235 49.1069 99.0842 50.3457 99.0962 51.595V51.6467C99.13 54.1505 100.15 56.5399 101.935 58.2961C103.72 60.0523 106.126 61.0336 108.63 61.0267C111.134 61.0199 113.534 60.0256 115.309 58.2597C117.085 56.4938 118.092 54.0989 118.112 51.595V51.5421C118.129 50.2983 117.894 49.0639 117.422 47.9131C116.949 46.7624 116.249 45.7189 115.364 44.8455C114.478 43.9721 113.425 43.2868 112.268 42.8306C111.11 42.3745 109.873 42.1569 108.629 42.1911ZM114.761 51.6467C114.797 52.4751 114.666 53.3024 114.375 54.0788C114.083 54.8551 113.638 55.5645 113.065 56.164C112.492 56.7636 111.804 57.241 111.041 57.5675C110.279 57.8939 109.459 58.0627 108.629 58.0636C107.795 58.0579 106.97 57.8846 106.203 57.5539C105.437 57.2232 104.745 56.7418 104.168 56.1385C103.591 55.5351 103.142 54.822 102.846 54.0415C102.55 53.261 102.414 52.429 102.446 51.595V51.5421C102.41 50.7137 102.541 49.8865 102.833 49.1103C103.124 48.3341 103.57 47.6249 104.143 47.0255C104.715 46.426 105.404 45.9488 106.166 45.6224C106.928 45.296 107.748 45.1272 108.578 45.1263C109.412 45.132 110.237 45.3053 111.004 45.636C111.77 45.9667 112.462 46.4481 113.039 47.0514C113.615 47.6548 114.065 48.3679 114.361 49.1484C114.657 49.9289 114.793 50.7609 114.761 51.595V51.6467ZM125.636 42.5014H122.439V60.6861H135.193V57.778H125.633L125.636 42.5014ZM143.675 56.4897L138.194 42.5026H134.66L142.219 60.8166H145.023L152.584 42.5026H149.128L143.675 56.4897ZM88.6238 56.4897L83.1425 42.5026H79.6102L87.1686 60.8166H89.9744L97.5328 42.5026H94.0769L88.6238 56.4897Z" fill="#11190C"/>
</g>
<defs>
<clipPath id="clip0_154_8231">
<rect width="126.712" height="18.8077" fill="white" transform="translate(43.2878 42.1912)"/>
</clipPath>
</defs>
</svg>
